<?xml version="1.0" encoding="UTF-8"?><svg xmlns="http://www.w3.org/2000/svg" viewBox="0 0 391.54 258.3"><defs><style>.d{fill:#5a5d59;}.e{fill:#3f6690;}</style></defs><g id="a"/><g id="b"><g id="c"><g><g><circle class="d" cx="287.11" cy="47.33" r="22.97"/><circle class="d" cx="258.67" cy="14.52" r="14.22"/><circle class="d" cx="245.55" cy="47.33" r="7.66"/></g><g><circle class="d" cx="113.86" cy="235.33" r="22.97"/><circle class="d" cx="142.3" cy="202.52" r="14.22"/><circle class="d" cx="155.42" cy="235.33" r="7.66"/></g><path class="e" d="M132.21,150.9l-5.21-5.89c-33.4-39.38-56.56-66.25-69.45-80.6C44.65,50.05,25.47,29.75,0,3.5H176.71l85.94,103.55c26.82-23.55,57.86-53.53,93.11-89.95,6.62-6.74,11.59-11.28,14.91-13.61,3.31-2.33,6.63-3.49,9.94-3.49,5.97,0,8.95,2.02,8.95,6.07,0,1.59-.62,3.16-1.86,4.69-1.24,1.53-5.75,5.92-13.54,13.16l-8.7,7.92-92.96,86.72,119.05,136.07H217.19l-75.08-92.28c-17.75,16.05-42.97,40.74-75.65,74.08-9.62,9.92-15.88,16.02-18.78,18.29-2.9,2.27-6,3.41-9.31,3.41-2.65,0-4.97-.68-6.95-2.02-1.99-1.35-2.98-2.94-2.98-4.78,0-2.33,1.37-4.91,4.1-7.73,2.73-2.82,12.21-11.65,28.43-26.48l71.25-66.2Z"/></g></g></g></svg>